<svg width="36" height="26" viewBox="0 0 36 26" fill="none" xmlns="http://www.w3.org/2000/svg">
<g id="logo">
<path id="Vector" d="M11.155 20.3098C10.8838 20.2396 10.62 20.1434 10.3673 20.0226C9.29588 21.6513 8.57746 23.4863 8.2583 25.4094H11.7191C11.2912 23.7447 11.1013 22.0278 11.155 20.3098ZM22.3695 18.4307C21.6748 20.0198 21.137 21.6729 20.7636 23.3665C20.6137 24.05 21.0672 24.731 20.9821 25.4094H25.3348C24.1913 22.1735 23.9284 17.4677 23.3338 15.5861C23.3198 15.5594 22.386 18.4536 22.3695 18.4307Z" fill="#228B22"/>
<path id="Vector_2" d="M34.759 7.30256C33.7693 5.86565 31.5104 4.6587 30.9844 3.01851C30.8205 2.46242 30.856 1.86656 31.0848 1.33386C31.3389 0.932391 30.9336 1.04673 30.9336 1.04673C30.3707 1.2678 30.1281 0.63637 30.1281 0.63637C30.0442 0.415307 30.1598 -0.260587 29.6758 0.107852C28.803 0.777393 29.0901 2.40614 29.254 3.06171C29.5485 4.17561 30.1192 5.19725 30.9132 6.03208C31.1953 6.29888 32.9676 8.29099 32.7249 9.30991C32.7175 9.48354 32.6549 9.65026 32.5461 9.78578C32.4373 9.9213 32.2881 10.0185 32.1202 10.0633C30.8294 10.3276 30.4101 8.71025 30.4101 8.71025C29.442 4.48973 27.8781 3.01216 27.8781 3.01216C25.343 2.91643 22.806 3.14226 20.3276 3.68424C14.5566 3.45147 8.79622 4.35807 3.37566 6.35224C1.24888 9.47126 0 15.2608 0 15.2608C0 15.2608 4.02296e-08 15.29 0.0203277 15.2926C0.0346988 15.2944 0.0492811 15.2918 0.0621904 15.2853C0.0750997 15.2787 0.0857427 15.2684 0.0927448 15.2557C0.888216 14.2368 1.79077 13.3061 2.78489 12.4798C2.57005 16.8483 3.10504 21.2214 4.36663 25.4094H7.74229C8.10829 23.2205 8.95055 21.1387 10.2096 19.3111C11.4648 20.283 14.3005 19.9946 14.3005 19.9946C14.8011 21.9321 15.8251 25.403 15.8251 25.403H19.8906C20.2427 22.7564 20.9895 20.1774 22.1063 17.7522C22.5471 16.7765 22.8926 15.7605 23.1379 14.7183C23.1753 14.2713 23.3848 13.8564 23.7224 13.561C24.06 13.2656 24.4991 13.113 24.9471 13.1353C25.5607 13.1353 28.352 14.7272 30.4368 14.6205C34.0678 14.4337 35.4997 12.7148 35.5708 10.7621C35.6584 9.55316 35.3752 8.34629 34.759 7.30256ZM23.0871 11.4481C23.0682 11.5027 23.0426 11.5548 23.0109 11.6031C22.9745 11.6588 22.9252 11.705 22.8673 11.7378C22.8043 11.7721 22.7331 11.7884 22.6615 11.7848C22.5978 11.7799 22.5353 11.7654 22.476 11.7416C22.2779 11.6482 22.0987 11.519 21.9475 11.3605C21.8713 11.2893 21.8014 11.2144 21.7328 11.1419L21.5359 10.9323C21.4142 10.8267 21.2731 10.746 21.1204 10.6947C20.9436 10.6353 20.7638 10.5853 20.5817 10.5448C20.3937 10.4991 20.2006 10.4508 19.9998 10.3822C19.944 10.3629 19.8892 10.3405 19.836 10.3149L19.7546 10.2844C19.7168 10.2619 19.681 10.2359 19.6479 10.2069C19.5833 10.1499 19.5299 10.0814 19.4904 10.0049C19.4548 9.93795 19.4283 9.8666 19.4116 9.7927C19.3852 9.66749 19.3758 9.53928 19.3837 9.41155C19.3879 9.29992 19.3998 9.1887 19.4192 9.07869C19.4582 8.87155 19.5099 8.66703 19.5742 8.46632C19.6361 8.27575 19.7047 8.08433 19.7801 7.89206C19.8169 7.79678 19.8525 7.7053 19.8957 7.60493C19.9393 7.50672 19.988 7.41088 20.0418 7.31781C20.2524 6.95783 20.5312 6.64237 20.8625 6.38909C21.0226 6.26609 21.1926 6.15646 21.3707 6.06131C21.5497 5.9651 21.7383 5.88802 21.9335 5.83135C21.6167 6.05801 21.3261 6.31922 21.067 6.61015C20.8141 6.88543 20.6062 7.19884 20.4509 7.53887C20.4141 7.62159 20.3822 7.70644 20.3556 7.79296L20.2679 8.08009C20.212 8.26685 20.1561 8.45361 20.1104 8.64037C20.0624 8.82119 20.0238 9.00439 19.9948 9.18922C19.9818 9.27341 19.9734 9.35823 19.9694 9.44331C19.9664 9.51534 19.9724 9.58747 19.9871 9.65803C19.9921 9.69429 20.0075 9.7283 20.0316 9.75585L20.071 9.77872L20.1815 9.82573C20.3441 9.88798 20.5322 9.93753 20.7215 9.99724C20.9181 10.0571 21.1107 10.1293 21.2983 10.2132C21.5134 10.3035 21.7057 10.4406 21.8611 10.6147C21.9258 10.6958 21.9856 10.7806 22.0402 10.8688L22.2117 11.1013C22.2676 11.175 22.3261 11.2461 22.3896 11.3147C22.4458 11.3771 22.5089 11.4329 22.5776 11.4812C22.6013 11.5007 22.6288 11.515 22.6583 11.5233C22.6878 11.5317 22.7188 11.5337 22.7492 11.5294C22.8206 11.5027 22.8798 11.4507 22.9156 11.3833C22.9667 11.3033 23.0093 11.2181 23.0426 11.1292C23.0795 11.0365 23.1074 10.9425 23.1392 10.8408C23.1569 11.0448 23.1393 11.2502 23.0871 11.4481ZM26.68 8.88558C26.6556 8.96275 26.6162 9.03436 26.5641 9.09631C26.512 9.15826 26.4482 9.20934 26.3763 9.24662C26.3045 9.28391 26.226 9.30667 26.1453 9.3136C26.0647 9.32054 25.9835 9.31151 25.9063 9.28705C25.7503 9.23161 25.6221 9.11747 25.549 8.96891C25.4759 8.82036 25.4637 8.64915 25.515 8.49173C25.5384 8.41502 25.5766 8.34367 25.6276 8.28177C25.6786 8.21986 25.7413 8.16862 25.8121 8.13098C25.8829 8.09333 25.9604 8.07002 26.0402 8.06238C26.1201 8.05474 26.2006 8.06292 26.2773 8.08644C26.3344 8.10402 26.3888 8.12969 26.4386 8.16267C26.5633 8.22984 26.6576 8.342 26.7025 8.47631C26.7473 8.61063 26.7393 8.75699 26.68 8.88558Z" fill="#4CAF50"/>
</g>
</svg>
