<svg width="18" height="19" viewBox="0 0 18 19" fill="none" xmlns="http://www.w3.org/2000/svg">
<path id="Vector - 0" fill-rule="evenodd" clip-rule="evenodd" d="M17.6965 17.0718L13.3978 12.7738C15.9861 9.66637 15.6725 5.07267 12.6858 2.34583C9.69912 -0.381011 5.09592 -0.276395 2.23621 2.58332C-0.623502 5.44303 -0.728118 10.0462 1.99872 13.0329C4.72557 16.0196 9.31926 16.3332 12.4267 13.7449L16.7247 18.0436C16.993 18.312 17.4282 18.312 17.6965 18.0436C17.9649 17.7753 17.9649 17.3401 17.6965 17.0718ZM1.41322 7.94191C1.41322 4.52791 4.1808 1.76032 7.5948 1.76032C11.0088 1.76032 13.7764 4.52791 13.7764 7.94191C13.7764 11.3559 11.0088 14.1235 7.5948 14.1235C4.18237 14.1197 1.417 11.3543 1.41322 7.94191Z" fill="#434343"/>
</svg>
